<svg xmlns="http://www.w3.org/2000/svg"  viewBox="0 0 100 100" width="100px" height="100px"><rect width="44" height="10" x="30" y="63" fill="#ff8405"/><rect width="44" height="10" x="30" y="31" fill="#ff8405"/><rect width="44" height="10" x="30" y="47" fill="#ff8405" transform="rotate(-180 52 52)"/><rect width="6" height="49" x="46.5" y="19.5" fill="#3fa9f5" transform="rotate(-90 49.5 44)"/><polygon fill="#4343bf" points="74,25 74,41 30,41 30,47 74,47 74,57 30,57 30,63 74,63 74,73 30,73 30,79 80,79 80,25"/><polygon fill="#3abcf8" points="74,21 20,21 20,76 30,76 30,31 74,31"/></svg>